/* XPM */
static char *wall[] = {
/* columns rows colors chars-per-pixel */
"32 32 22 1 ",
"  c #1E1E22",
". c #222226",
"X c #25252A",
"o c #29292E",
"O c #2D2D33",
"+ c #303036",
"@ c #34343B",
"# c #38383F",
"$ c #3C3C43",
"% c #3F3F48",
"& c #404047",
"* c #43434C",
"= c #48484F",
"- c #474750",
"; c #4B4B54",
": c #4E4E59",
"> c #505057",
", c #53535C",
"< c #565661",
"1 c #595964",
"2 c #5E5E69",
"3 c #61616C",
/* pixels */
"OOOooXXX..  ..   XXXoXoO+@Oo+ooX",
"+++OOOoooXXXX.. oO+OooO+##@+@++o",
"$##@@#@@$@+++OOOO$$$#@#%&&%%&&&&",
"&&%%&$$&-%%$$+OO+$*-&&*--:*-=;;;",
"***-=;--:;;-$$++$$;:==:>,,::>>,,",
";;;:>>;;:,:-$$++$%:,>>,<1<<,>,11",
"::,,<<,:,,:;$$++$-:<,,11111<,,12",
",,<121<,,,:%$$O+$%:<>,<1<<11,,23",
"<12232<,,,>-%$OO$%:<,,,<<:<<,122",
"1123331,<,>-%@OO$-;:,,<,<<,<1111",
"<122321<<,>;&$OO$%;<<<<<11<,,,,,",
",<<111,<,>:;&#OO$%;:<11,<<>>,,,,",
",,::;;;:::;-%$+@$%;:1,,,>>==>=>;",
"--****%-***%$@++$$-:,,>:==**=*==",
"$%$$$$$$#$##OOO##$--;;=&&#####$&",
"++++@@OO++++OOO+@$$$&&%#@++@####",
"OOOOOOOOOoOOoXooO+O+$o++oooO++++",
"+++@+++OOo+o$o$+++OOOo+oo+++$OOO",
"%%%$%%%#$$$$$$$$$#+@$$$$$$%%$@OO",
"----*&&&$$%%%%--&%$$$%%%%-%%$@oo",
"%*----*&$%--;::::--%--;;-;-&$+OX",
"$%%-;;-*%-;:,,,,,>;;--::;;;-%@OX",
"$%-;,<:;;;:,,1<<<<::-:::::::*$OO",
"$%-:<1,:::,<,1<<1<<,::,,,,<,;%+O",
"$$-:11<<:<<<,<1<111,,>,,11<<;*@O",
"$$-;<11,,,:<<<11211<,111121,:%@O",
"@$%;:<<,,:,<<<<1211<122321,:-%OO",
"@$%-;:::,,:,<<,,<<,>12332<>-&$OO",
"#$%----:,,>:,<,>;;;:,112<:;*$#OX",
"$$%&*--;>,::>>:;---;>,,,:;-%$OOo",
"%%$%%---;---;;-*&&%*::,>;*%$$+OX",
"**%%%-%-------&&&%%&-:>:-%$$$+OX"
};
