/* XPM */
static char *collect[] = {
/* columns rows colors chars-per-pixel */
"32 32 112 2 ",
"   c #070700",
".  c #0A0600",
"X  c #0C0D0D",
"o  c #160400",
"O  c #140C00",
"+  c #171501",
"@  c #1A1301",
"#  c #0F1210",
"$  c #1A1A15",
"%  c #1A191D",
"&  c #241703",
"*  c #251B07",
"=  c #2F280F",
"-  c #2C2917",
";  c #37321E",
":  c #1D1D22",
">  c #201F24",
",  c #1F2023",
"<  c #222126",
"1  c #26252B",
"2  c #28272D",
"3  c #27282E",
"4  c #29292F",
"5  c #302923",
"6  c #383326",
"7  c #39372E",
"8  c #2B2C32",
"9  c #2F3036",
"0  c #303137",
"q  c #34353C",
"w  c #38373A",
"e  c #37383F",
"r  c #38393F",
"t  c #483D0B",
"y  c #423C1D",
"u  c #423B21",
"i  c #584905",
"p  c #5B4D0F",
"a  c #474014",
"s  c #564C12",
"d  c #6C5A0E",
"f  c #6D5D16",
"g  c #726206",
"h  c #7B6503",
"j  c #7E6A02",
"k  c #7B6209",
"l  c #484025",
"z  c #6A5328",
"x  c #745B2B",
"c  c #373840",
"v  c #3B3C43",
"b  c #3F3F48",
"n  c #403F4A",
"m  c #3F4047",
"M  c #3F4048",
"N  c #43434C",
"B  c #48474E",
"V  c #47484F",
"C  c #4A4A4D",
"Z  c #454650",
"A  c #474850",
"S  c #4B4B54",
"D  c #4E4E58",
"F  c #514D54",
"G  c #4F5055",
"H  c #4F5059",
"J  c #52525C",
"K  c #555661",
"L  c #575863",
"P  c #5A5A65",
"I  c #5E5E69",
"U  c #60606B",
"Y  c #816A00",
"T  c #816D0B",
"R  c #8B7202",
"E  c #84710E",
"W  c #947D05",
"Q  c #937C0D",
"!  c #896A27",
"~  c #A77E23",
"^  c #9C8504",
"/  c #9C8109",
"(  c #A98C11",
")  c #BB8F29",
"_  c #C49E16",
"`  c #C59E19",
"'  c #C89C1B",
"]  c #C7A500",
"[  c #C3A20F",
"{  c #CDA80D",
"}  c #D8B700",
"|  c #DFBC09",
" . c #D6AA17",
".. c #DEB515",
"X. c #D6B01D",
"o. c #E2BB09",
"O. c #E2BC14",
"+. c #E1B31E",
"@. c #C69423",
"#. c #CF9E27",
"$. c #C6912B",
"%. c #C9962C",
"&. c #CA992A",
"*. c #C8A021",
"=. c #D4A424",
"-. c #DDAD22",
";. c #ECC20F",
":. c #EECA0F",
">. c #F9CD05",
",. c #F1C80E",
"<. c #FAD304",
"1. c #E4CF1C",
/* pixels */
"8 4 4 2 1 < < < > : % % % : % % % > < < < < 1 8 8 0 8 1 8 1 1 < ",
"8 8 8 8 4 1 < 1 1 > > > > > > % > 2 4 4 1 1 8 8 0 e 0 8 8 8 8 1 ",
"e q q 8 8 + + + @ 8 2 8 2 2 2 2 4 0 e e 0 9 0 v v v v v r v v e ",
"v v e ; j ` _ _ ' Y p % w 4 4 4 8 e b n v v M N N S N N N V V N ",
"N N @ X.O S B C H * $.1.9 e 8 9 r v Z D A S D J J J J G G H J J ",
"S % <.! H H F S D A y @.u c 8 9 r b S H D G J K L K K J H J P P ",
"D % <.z J K J D J H : @.u e 8 8 r N S J J J K P K L P L J J P I ",
"J : <.z P K K J J J < @.y q 8 8 e b A J G J K K K K J P J J I U ",
"K , <.z I P K J J J > @.u q 8 8 e b S H J J J K J J J L J P I I ",
"K : <.x U I K J K D 5 @.y 9 4 8 e N A D J J J J K J J J L L L L ",
"K b g *.5 I P J J 5 ~ O.7 e 4 8 e b Z J K J K K K K K J J J J J ",
"J K G j ) .       @.%.@.a 0 8 8 c v S D K K K J K K J D J J J J ",
"D D S v u Y j j Y l d ..@.E : 9 e v N D J J J G D S N N S V S V ",
"N N N M N r q v w N r * *.=.^ 4 e c N S J G D S N N N b n b N N ",
"c v c v r r e e e e q q ( &.=.k 1 c n N V V N m r e e e e e v v ",
"8 8 8 8 0 0 8 8 8 8 8 8 - o.%.=.^ 1 c v v v r q 0 9 8 8 0 q q q ",
"8 8 8 8 8 8 4 4 4 1 4 8 1 X { &.=.h 1 9 q 4 8 8 3 1 2 4 8 8 9 8 ",
"8 8 8 8 8 8 8 8 8 1 8 1 8 4 6 { %.=./ : 8 3 8 3 2 8 8 8 q 4 4 8 ",
"c v v c v c c q q q q q e e c # | &.#.E 0 w q q q q e v v 8 8 4 ",
"M N N M b b v v c c v b v b N N 6 ( #.` a e v b b N b v e 8 3 1 ",
"v M N N Z N M v v b N A S D D D S C & +.%.Q M S Z A Z N e 8 8 < ",
"v v b Z S S A Z N N S D J J J J J J V d %.=.k c S S S Z v 8 8 < ",
"v v N A J J D S S S S H J K K K J J V k >.&.=.^ v D D D b q 8 4 ",
"c v Z S K K J D S D H K J K K K L V i ..$ [ &.=.h b J J Z v 8 8 ",
"v c N S K L K J D J J K J K L K S T -.Q $ _ ;.%.:.X K J S v 0 8 ",
"c v N S K K K J J J D J K K L L S W ] 1 ,. .= } t P L J A v 9 2 ",
"q c v A H K K J H D G J K K K L I N 0 f O.s L e J L J F N v 8 8 ",
"0 c v Z S D D H J J H J J K J J J J S R o I U U I K J S b c 8 1 ",
"c c v N Z Z A S J J D D J J J G D S C B J K L L J D S N c 8 4 < ",
"v c v b M Z Z S D D S S S D S N N N N S D H J J D Z Z v e 8 4 1 ",
"v v v v b N N Z S N Z A V V N N b v b b D D J S A N v v c 8 4 > ",
"b N v v b Z b Z Z Z Z N Z N m m v b v b Z D D D Z b v v q 8 4 < "
};
