/* XPM */
static char *exit[] = {
/* columns rows colors chars-per-pixel */
"32 32 112 2 ",
"   c #1B1C16",
".  c #242422",
"X  c #282827",
"o  c #2D3028",
"O  c #32342D",
"+  c #363A34",
"@  c #3A3D35",
"#  c #3C3D38",
"$  c #3E4234",
"%  c #3E4139",
"&  c #404235",
"*  c #44443C",
"=  c #454641",
"-  c #464941",
";  c #4A4B45",
":  c #4C4D49",
">  c #504D47",
",  c #524E49",
"<  c #4F504B",
"1  c #54544D",
"2  c #56584F",
"3  c #545751",
"4  c #595753",
"5  c #565952",
"6  c #5A5A53",
"7  c #5D5F5A",
"8  c #5D6056",
"9  c #5E615A",
"0  c #646557",
"q  c #62645C",
"w  c #66695D",
"e  c #696C5E",
"r  c #5F5F62",
"t  c #646563",
"y  c #666A63",
"u  c #696C64",
"i  c #6B6C6A",
"p  c #6E7166",
"a  c #6E716B",
"s  c #707265",
"d  c #71746C",
"f  c #73786E",
"g  c #737472",
"h  c #797770",
"j  c #757972",
"k  c #7A7C75",
"l  c #7C7C7A",
"z  c #7E8176",
"x  c #7E817A",
"c  c #838477",
"v  c #82847C",
"b  c #8A8C7E",
"n  c #848482",
"m  c #878A83",
"M  c #8C8D83",
"N  c #8C8D8A",
"B  c #8E9184",
"V  c #8E928B",
"C  c #919285",
"Z  c #93948C",
"A  c #94988E",
"S  c #98988D",
"D  c #949593",
"F  c #969992",
"G  c #9B9C95",
"H  c #9B9C99",
"J  c #A19F9B",
"K  c #9DA196",
"L  c #9EA19B",
"P  c #A1A297",
"I  c #A2A49C",
"U  c #A8A59D",
"Y  c #A5A89D",
"T  c #A4A6A1",
"R  c #A9A7A1",
"E  c #A7A9A2",
"W  c #ABADA4",
"Q  c #ADAEAB",
"!  c #ACB0A6",
"~  c #AEB2AA",
"^  c #B2B4AC",
"/  c #B6B9AD",
"(  c #B6B6B2",
")  c #B6B9B3",
"_  c #B9BBB3",
"`  c #BCBDBC",
"'  c #C0BEB4",
"]  c #BFC0B7",
"[  c #C2C3BB",
"{  c #C4C5C2",
"}  c #C6C9C2",
"|  c #C9CAC5",
" . c #CED0CA",
".. c #D1D2CD",
"X. c #D5D5D2",
"o. c #D7D8D3",
"O. c #DADBD6",
"+. c #DDDEDA",
"@. c #DDE0DB",
"#. c #E3E4DD",
"$. c #E8E7DF",
"%. c #E7E9DF",
"&. c #E4E5E0",
"*. c #E9E7E5",
"=. c #E7E8E2",
"-. c #EBEBE2",
";. c #EDEDEA",
":. c #EFF0E8",
">. c #F0F1E7",
",. c #F1F2EA",
"<. c #F4F4F3",
"1. c #F9F9F6",
/* pixels */
"y * * * * * * * * * * * * * & * * * * * * * - * * * * * * - ; ; ",
"D 1 I H 6 6 k z j x k x k k k k c z k k l j v n v k z p : M ^ ( ",
"n 4 L _ u p G ! W L ~ | Y ^ Y W / ! ! ! Y W ) _ / K ! v - v | >.",
"t 4 V V y y Z K Z V I V A L A K K C K S A D L Z Z Z G f ; x G $.",
"x 1 R A i = ; = = = % = = - - = * * - ; : = = - ; - - - * M Z =.",
"D 2 ) P i l ( ) ( ( # l ) ) ) L 8 V / ) ) Q : Q ( _ ) d * G S =.",
"a 3 Q ` i N ~ O.o.&.% A T  .;.| u m T o...=., | ^ #.#.v % v O.>.",
"t 3 I N i 7 g { I +.@ D D } | E q k V  .A =., [ R | } v # h Z $.",
"D 1 D g n 1.n a r l # 4 9 j y r : 4 y l r x + a u z V f % x m =.",
"N 3 U N l ;.l R +.X.+.+.O.@.O.O.O.+.O.o.O.@.@.O.O.K x z % x ] &.",
"t 1 J G 4 N 4 v J H J J L L K L L P I K L L L L K f x a % z ] -.",
"l 1 Y v > g , q i i u i y y y y u a u y u u p p p 9 l a % x K @.",
"D 1 / J * 4 @ 7 q v o 5 8 a 8 8 * : 2 6 8 m + 9 y g x i $ x / %.",
"g 1 J ( 4 O , J D ' % d F ~ m m q p b B V &.* m L ) V y $ z ! -.",
"y 3 U Z e 7 v Z N [ * u Z ! b B w s M B V =.- N K E V y $ j B :.",
"D , P G u u C C M / $ e B K b M 0 s b M m &.O = g F m 9 % x ] %.",
"Z 1 K Z q w B C c ] $ e C b b B 0 s B c y > { @.v 3 n 9 + k T =.",
"i 6 ' B y u C M b Y $ e b b b b 0 s B c - D <.<...g 6 r $ V T =.",
"a , C C y u C C b P $ e b B b b 0 s M p v m  .{ T l r 9 % x ! &.",
"N , P V u e C M b S $ e b b M b 0 p b f v N Q l N n t r = z V -.",
"n , W W w e C M b S & e M m B B 0 s b v * G n n m f 9 9 % x ) ,.",
"a > J ^ e u C B b S $ e M M B B 0 d B B : * 7 q < ; x 9 = j ~ :.",
"g 1 _ ' e e C b b S $ e B M B C 0 d B C c   X . X < V 8 % z  .-.",
"D , S S e 1 s c b C $ 0 m B B Z 0 s b b B w . . : m m 9 % z K ,.",
"m 4 S k h $.l u v n * q x v x x 8 y l l v H : i n x m 9 % z V @.",
"t 4 ' l l *.h C ~ ~ ~ ~ ^ ~ Q ~ ^ ( ( ` ( ( Q Q ~ n y 9 % A Z %.",
"h 4 ^ v 4 J r D _ ` ] ) ) ) ] _ ' ` ` ` ` ` ` ( ) m i 9 $ V W %.",
"D 4 W Z ; l 4 4 9 9 9 9 9 9 9 7 r r r r r r t 7 9 3 9 9 % z ] -.",
"l 4 R h > M , % - - * - : : : : = = : : ; < = : ; - p 9 % z B -.",
"t , U U , , 1 y a a + < g d g i : 7 d d f j @ i a z m r % z ] ,.",
"C , D ^ q 4 v M M M + y m m N v 4 d N C V n = N m m V t = j Y o.",
"D i g H n t m D g t D D i g D n t n D g i D D t j H n t n F a a "
};
