/* XPM */
static char *hero[] = {
/* columns rows colors chars-per-pixel */
"32 32 151 2 ",
"   c #19191D",
".  c #1D1C21",
"X  c #222126",
"o  c #25252A",
"O  c #28272D",
"+  c #29292F",
"@  c #332E2A",
"#  c #35312F",
"$  c #2C2D33",
"%  c #2F3036",
"&  c #313136",
"*  c #393434",
"=  c #3C3837",
"-  c #33343B",
";  c #3B3738",
":  c #37383F",
">  c #3B3B3E",
",  c #563929",
"<  c #463C37",
"1  c #4C3C35",
"2  c #423D39",
"3  c #733325",
"4  c #4D423A",
"5  c #61402A",
"6  c #1C3C42",
"7  c #373840",
"8  c #3B3C43",
"9  c #3F3F48",
"0  c #3F4047",
"q  c #3F4048",
"w  c #2D6164",
"e  c #336466",
"r  c #424145",
"t  c #4A4343",
"y  c #43444C",
"u  c #4A494D",
"i  c #514740",
"p  c #5F4F48",
"a  c #5E5048",
"s  c #464650",
"d  c #474850",
"f  c #4B4C54",
"g  c #4E4F59",
"h  c #534D51",
"j  c #4F5056",
"k  c #4F505A",
"l  c #5B5454",
"z  c #52525C",
"x  c #59545C",
"c  c #5E595A",
"v  c #604944",
"b  c #794A44",
"n  c #635149",
"m  c #6F534A",
"M  c #67594D",
"N  c #6B5A4D",
"B  c #72554C",
"V  c #7B584F",
"C  c #695B50",
"Z  c #665858",
"A  c #785758",
"S  c #6D605A",
"D  c #73635B",
"F  c #565661",
"G  c #575863",
"H  c #5A5A65",
"J  c #5E5F68",
"K  c #635960",
"L  c #6F6263",
"P  c #60616A",
"I  c #667C77",
"U  c #7F7470",
"Y  c #9C3725",
"T  c #A6471F",
"R  c #A5481F",
"E  c #A94A1B",
"W  c #894A29",
"Q  c #97542B",
"!  c #85523A",
"~  c #9D5435",
"^  c #A54721",
"/  c #A64920",
"(  c #AB4D20",
")  c #B35324",
"_  c #B95726",
"`  c #BD5C25",
"'  c #B65E2F",
"]  c #C15E27",
"[  c #C26025",
"{  c #C46128",
"}  c #C96629",
"|  c #CC692A",
" . c #D46F2C",
".. c #D4702C",
"X. c #875943",
"o. c #9E5F47",
"O. c #825651",
"+. c #816A5A",
"@. c #B3654A",
"#. c #8D6A6A",
"$. c #9D6D61",
"%. c #8A766A",
"&. c #9E7F6F",
"*. c #8D7F7A",
"=. c #AE7869",
"-. c #BF7F73",
";. c #C07F72",
":. c #668178",
">. c #7A837E",
",. c #968070",
"<. c #9A8173",
"1. c #90857B",
"2. c #A78B7A",
"3. c #B38172",
"4. c #BF8071",
"5. c #BA977B",
"6. c #CD835B",
"7. c #CF8D6B",
"8. c #C2906E",
"9. c #D79D7D",
"0. c #E6A97D",
"q. c #7E9999",
"w. c #A29282",
"e. c #AD9581",
"r. c #A69388",
"t. c #B99887",
"y. c #A39690",
"u. c #9AA89E",
"i. c #BFA48E",
"p. c #BDA795",
"a. c #8EA4A0",
"s. c #A8AFA4",
"d. c #D29B88",
"f. c #D6A28E",
"g. c #C3AA97",
"h. c #D9AE96",
"j. c #D6AF99",
"k. c #D8AE99",
"l. c #D5B69C",
"z. c #E2B095",
"x. c #E2B69D",
"c. c #DCC2AD",
"v. c #EBC2A7",
"b. c #EFC8AC",
"n. c #F3CEAF",
"m. c #F3CEB1",
"M. c #F4D1B3",
"N. c #E9D7C6",
"B. c #F7DEC9",
"V. c #F7E6D7",
"C. c #FCF0E4",
/* pixels */
"$ + O o o X X X . . . . . .       X X X o X o $ $ % $ O + O o o ",
"$ $ $ $ + O o o o X . r r 9 8 > > > r r r 8 & $ - - & $ & % $ O ",
": - - & % - % - - % % @ @ @ @ @ # + # @ @ @ @ 8 9 0 8 9 9 8 9 8 ",
"9 9 8 8 8 8 8 0 y 8 * &.2.e.e.e.5.e.e.5.e.2.&.; y d y y y u f d ",
"y q y y s d y d d y < x.v.M.m.m.m.m.m.m.m.v.l.< u f k f j f z z ",
"d d f g j f f f = 4 h.C.C.C.m.m.m.m.m.m.m.m.m.j.n * F z j z x x ",
"g k z z F F k f = i m.C.C.C.m.m.m.m.m.n.m.m.m.m.C * G G z z G H ",
"k z G G H G F k = t m.B.B.B.m.m.n.n.m.m.m.m.m.m.C * G G z z H P ",
"G H J P J H F z = i m.m.m.m.m.m.m.m.m.m.m.m.m.m.C * z G z x H P ",
"G H J P P J F 2 i.m.m.m.m.m.m.m.m.m.m.m.m.m.m.m.n.l.# z F F G G ",
"F G J J J J G * $.9.M.B m m M.m.m.m.m.m.B B B m.d.=.@ z z z z z ",
"z F F G F F z 2 $.d.n.t S <.m.m.m.m.m.M.i Z <.m.f.3.@ f z k z z ",
"k g g f f f f l t.j.n.6 >.N.m.m.m.m.m.M.6 I N.m.x.t.@ d f d f f ",
"s s q y 9 9 9 y l D n.w a.C.m.m.m.m.m.M.e q.C.m.N @ y q y r y y ",
"7 8 8 7 7 7 7 7 x U v.I s.V.M.m.m.m.m.n.:.u.V.v.N # : - : : 8 8 ",
"$ $ $ % - % $ $ $ r h.m.n.m.m.m.m.m.m.m.m.m.n.h.n @ $ $ - - - - ",
"+ $ + $ $ $ + + + + p x.v.m.m.m.m.m.m.m.n.v.x.a * O + + $ $ $ $ ",
"$ $ % $ $ $ $ $ & * , 9.z.b.b.n.b.b.b.b.b.x.9., @ + $ $ - $ $ $ ",
"9 8 7 8 8 8 7 - Z +...] 6.h.h.k.k.h.h.h.h.7.] .., @ 2 7 7 - $ O ",
"q s s s q 8 9 8 c +... .} ] ] v q 8 1 ] ] }  . .5 * y 9 7 & + o ",
"9 q q s y y 9 8 1.w.8._ ] | ] n h ! Q | | { _ 0.5.,.* q 8 & $ o ",
"8 9 q s f f s 9 p.c.y./ `  .] B M ' { ....[ R b.n.l.# s q - $ X ",
"8 9 s f z z f d g.v.4./ _  .] ] ]  . .....` T ;.x.l.@ f s 8 % O ",
"8 q s g F F z g g.m.m.4.@.^  . ........./ @.-.n.M.l.# k f q % $ ",
"8 8 s g F F F z *.r.r.#.o.) } ] ` ` ] } ) ~ V ,.,.%.r F f y - $ ",
"8 8 s f F F F z z z g F X.` ] ( ^ R E ] [ W @ @ @ * H z f y - $ ",
"- 8 9 f g F z z z g k F b Y Y O.A L A Y Y 3 # J H G z k d q & $ ",
"- 8 9 s f f g g k z k z x Z Z K H G Z b , n H P P F k d q 8 $ + ",
"7 8 9 q s s s g k k k k z z k j f f f c c x G H F g f q 8 7 $ o ",
"7 8 9 9 9 s s f k k f f k k f f y s y f f k k z g f s 9 8 $ + o ",
"8 8 8 8 q q q s d s s d d f y r q 0 0 y f k k g d y 9 8 8 % + o ",
"9 9 9 9 q s q s s y s d y y 0 0 0 8 8 0 y f j g d q 8 7 7 % $ X "
};
