/* XPM */
static char *open_exit[] = {
/* columns rows colors chars-per-pixel */
"32 32 140 2 ",
"   c #13140E",
".  c #0F1412",
"X  c #061C16",
"o  c #0D1A15",
"O  c #0F1719",
"+  c #061F1B",
"@  c #0C1B1A",
"#  c #131513",
"$  c #111815",
"%  c #121519",
"&  c #18171C",
"*  c #111819",
"=  c #082217",
"-  c #03231D",
";  c #09201A",
":  c #00281D",
">  c #1D1C22",
",  c #012521",
"<  c #0A2320",
"1  c #032823",
"2  c #092E27",
"3  c #1A2926",
"4  c #182D2A",
"5  c #10332D",
"6  c #1C332B",
"7  c #1C3935",
"8  c #193D39",
"9  c #212025",
"0  c #242B25",
"q  c #282A25",
"w  c #25242A",
"e  c #28272C",
"r  c #272D29",
"t  c #292A2F",
"y  c #203129",
"u  c #2C2D32",
"i  c #273832",
"p  c #2A3935",
"a  c #2C3F39",
"s  c #313237",
"d  c #35353D",
"f  c #303F3B",
"g  c #383E3A",
"h  c #21463F",
"j  c #2F423E",
"k  c #32403D",
"l  c #42423C",
"z  c #3C3C43",
"x  c #403F43",
"c  c #344240",
"v  c #3B4745",
"b  c #3F424B",
"n  c #2C514B",
"m  c #35524E",
"M  c #454443",
"N  c #464843",
"B  c #4A4B46",
"V  c #44444D",
"C  c #48474F",
"Z  c #4C4C4A",
"A  c #4F514B",
"S  c #55564F",
"D  c #4B4B53",
"F  c #4D4D59",
"G  c #4F5054",
"H  c #545452",
"J  c #585752",
"K  c #575953",
"L  c #5A5A54",
"P  c #52525C",
"I  c #5C5C5B",
"U  c #5E6055",
"Y  c #5E625D",
"T  c #63645E",
"R  c #65695E",
"E  c #69695F",
"W  c #555561",
"Q  c #595963",
"!  c #5E5E68",
"~  c #605F65",
"^  c #466B64",
"/  c #54736D",
"(  c #656664",
")  c #6A6C65",
"_  c #64646B",
"`  c #646869",
"'  c #6C6F68",
"]  c #647566",
"[  c #697567",
"{  c #74746B",
"}  c #757D6E",
"|  c #6F7571",
" . c #747572",
".. c #7A7D77",
"X. c #77767B",
"o. c #7B7B7D",
"O. c #7D837F",
"+. c #808274",
"@. c #7E8480",
"#. c #6F948D",
"$. c #769B94",
"%. c #7D9A95",
"&. c #828583",
"*. c #8A8E8B",
"=. c #8F9184",
"-. c #8C928C",
";. c #91928E",
":. c #989689",
">. c #9A9A8E",
",. c #849491",
"<. c #899A94",
"1. c #8F9B99",
"2. c #939690",
"3. c #979890",
"4. c #9A9C94",
"5. c #9D9E99",
"6. c #9EA196",
"7. c #9EA19B",
"8. c #A1A296",
"9. c #A3A49C",
"0. c #A9A99F",
"q. c #A4A6A0",
"w. c #A5AAA4",
"e. c #AAAAA4",
"r. c #ACAEA9",
"t. c #B0AFAB",
"y. c #AEB0A5",
"u. c #ACB1AA",
"i. c #B1B1A5",
"p. c #B2B2AC",
"a. c #B6B7B2",
"s. c #BABBB6",
"d. c #BBBEB9",
"f. c #BFC0BB",
"g. c #C2C4BE",
"h. c #AECBC7",
"j. c #C6C7C2",
"k. c #C9CAC5",
"l. c #CED3CF",
"z. c #CFD5D1",
/* pixels */
"t t t w w > w > > > & & > > & & & 9 9 9 w 9 w t u s t w u w w 9 ",
"u u u e t t w w e w w t w > > > s x D C M s s t d d s u s u u w ",
"z d d S L I K J L K H H K U L L L L L L L L Y ( J V z z z z M z ",
"z z b ) E l A K L K K K S K U J L S L J K S K I L B E ( C D D D ",
"x b V a.k.Z { 9.q.q.6.4.e.5.w.7.4.e.6.w.r.4.6.w.2.L d.s.G G P P ",
"D D H >.a.Z  .q.w.0.7.7.r.q.u.w.9.y.9.0.q.4.7.r...G 6.w.G P Q Q ",
"F F Q e.r.J ( g 6 6 6 6 4 6 6 0 0 y r q 0 0 0 q q Z r.q.P P Q ! ",
"P P ~ 8.s.( O.a = = - - - , + o o $ $ $ o .     # B 9.q.P P ! ! ",
"W Q _ 6.d.K ` i - - : : - - - @ * o % % # #       B 9.e.P Q ~ ! ",
"Q Q ` 9.4.a.f.i - - : : - - - @ O O % % % # # & # B p.>.Q Q Q Q ",
"W Q ( 6.7.f.l.k ; , , - - - - + @ * % % # #     $ Z 9.0.P P P P ",
"P W ( 3.q.5.u.k - - - , - - + @ * @ % # . #   #   Z 9.e.P P P P ",
"P P Q 8.9.-.| v - - , , - - + X @ * * % # # # # # M 9.t.F D F D ",
"V V H >.9.T ` 3 - , , , , + + @ * * $ % # # # #   B 5.y.V x V C ",
"z z Z 9.s.Z K p - 1 , , , - + X O O $ % # # # # # M 9.9.d d z z ",
"u u M 5.s.) @.c 7 5 1 , , + + + O o % O # # # #   N 9.5.d d d d ",
"t t M 9.f.) @.o.h.$.8 , , + + X @ O * % % #   # # B t.9.u u u u ",
"u u M 9.a.) ,.1.h.#.n , , , + + @ O $ O # # # # # B q.:.x e t t ",
"z z H =.u.' 2.,.%.^ n , , - + @ @ O % # # #   #   Z =.4.z s t t ",
"C C L 9.p.' *.<./ ^ n - , - + X @ o O $ # #   #   Z a.4.z s w w ",
"z b I 4.j.) @.m m h 2 , , + + + @ O $ % # #   # # Z 7.y.d u t 9 ",
"z z J q.j.) @.k + , 1 , , - + X O O $ % # #   # # B t.t.x s t 9 ",
"g z Q 4.r.L Y 3 - - : - - - + + @ O * % # # # # # N e.>.x z t t ",
"z z T >.;.g.z.f - - 1 : , - + @ O * * % # #   # # N 7.3.D z u t ",
"z z I e.4.t.j.c < , , , , , + @ O O % % & # # # # B 0.6.K V s u ",
"z d I 9.t.*.*.c + 1 , , , , + @ O O % O   # #   # B e.i.o.z s t ",
"u z P 9.;.&. .z < 1 1 , - - - @ @ O O % % # #     B p.>.X.z t t ",
"s z S 8.t.Z v 4 1 1 1 , , - + + @ @ % % % % #   # B 9.0.X.z t t ",
"d z B R ..L @.j X , - - = = X X o o o # # #       l ) ' ..d t 9 ",
"z z H I ' +.:.} [ ] [ [ [ / R R R R R R ) ) ) E T { { ) H u u w ",
"z z z z z V C V D C V V Z D C V z M z V F F P G D x z z z u e > ",
"V z z z z C z C V V C C V V z b z z z z C F G F C z z z z u t w "
};
