/* XPM */
static char *open_door[] = {
/* columns rows colors chars-per-pixel */
"32 32 134 2 ",
"   c #15130F",
".  c #0F1512",
"X  c #071E16",
"o  c #0B1A15",
"O  c #051F1C",
"+  c #0C1B1A",
"@  c #121514",
"#  c #111916",
"$  c #111618",
"%  c #101919",
"&  c #02231C",
"*  c #08221C",
"=  c #012621",
"-  c #032923",
";  c #082F29",
":  c #1A2A26",
">  c #1C2D29",
",  c #11332D",
"<  c #1D322A",
"1  c #1E3834",
"2  c #183F38",
"3  c #242A25",
"4  c #252E2A",
"5  c #23332C",
"6  c #283632",
"7  c #2D3D37",
"8  c #2F3D3D",
"9  c #323F3A",
"0  c #383F39",
"q  c #413F3C",
"w  c #34413E",
"e  c #44423D",
"r  c #4E4F3D",
"t  c #234640",
"y  c #354443",
"u  c #3A4845",
"i  c #2A514B",
"p  c #37524B",
"a  c #474542",
"s  c #484745",
"d  c #474944",
"f  c #4A4A46",
"g  c #444748",
"h  c #4C4C48",
"j  c #514F4A",
"k  c #42514B",
"l  c #4F534B",
"z  c #555645",
"x  c #575846",
"c  c #595A46",
"v  c #52524E",
"b  c #58574F",
"n  c #5B5B4B",
"m  c #575651",
"M  c #585752",
"N  c #575951",
"B  c #5C5C53",
"V  c #5B5D59",
"C  c #60625D",
"Z  c #67695C",
"A  c #6D6C5E",
"S  c #4A6C66",
"D  c #57726B",
"F  c #686762",
"G  c #666966",
"H  c #6B6C64",
"J  c #666968",
"K  c #6D6E69",
"L  c #667565",
"P  c #697364",
"I  c #797A67",
"U  c #75756B",
"Y  c #7B7D6E",
"T  c #727472",
"R  c #7A7E76",
"E  c #74817E",
"W  c #82846F",
"Q  c #828373",
"!  c #80827F",
"~  c #8C8C7B",
"^  c #92927E",
"/  c #71948D",
"(  c #779993",
")  c #828482",
"_  c #8C8E8C",
"`  c #8F9187",
"'  c #959583",
"]  c #9B9C87",
"[  c #93948D",
"{  c #97998E",
"}  c #9C9D8A",
"|  c #869491",
" . c #8B9A96",
".. c #939490",
"X. c #9B9C94",
"o. c #9D9E99",
"O. c #9FA08B",
"+. c #9EA096",
"@. c #9DA29A",
"#. c #A7A78C",
"$. c #A1A294",
"%. c #ADAC93",
"&. c #A3A39D",
"*. c #A7A89E",
"=. c #B8B99F",
"-. c #A5A6A1",
";. c #A5AAA2",
":. c #ABABA5",
">. c #ADADA9",
",. c #ADB1A9",
"<. c #B1B2A7",
"1. c #B8B7A1",
"2. c #BBBBA4",
"3. c #B2B3AC",
"4. c #B5B5B1",
"5. c #BABBB6",
"6. c #BDBEBA",
"7. c #BFC0AA",
"8. c #A8C3BE",
"9. c #C7C6AC",
"0. c #C9C8AE",
"q. c #CBCCB4",
"w. c #D4D3BD",
"e. c #D7D8BE",
"r. c #DBDCBE",
"t. c #B1CBC6",
"y. c #C4C5C2",
"u. c #C9C9C7",
"i. c #D3D1C0",
"p. c #D7D9C1",
"a. c #DDDDC3",
"s. c #D1D3D2",
"d. c #E0DDC5",
"f. c #E0E2C8",
/* pixels */
"a.a.r.d.a.a.a.a.a.a.a.d.a.a.a.a.a.a.d.a.a.a.a.a.a.a.a.a.a.a.a.d.",
"a.a.e.w.w.w.w.w.i.i.i.i.i.i.w.w.w.w.w.w.w.w.i.w.w.w.w.e.a.a.d.d.",
"a.a.` n n B B B B B B B B B B B B B M B B B B B B B B Z 9.a.r.d.",
"a.a.z F A e v n B M B m M M B B B n M b N N N B N d F V ^ a.a.a.",
"a.a.B 4.u.h U &.*.*.+.X.>.X.:.@.o.;.+.*.,.X.@.;.[ B 5.4.] a.p.a.",
"d.p.n ..5.j T -.,.*.@.@.>.-.>.;.*.,.&.;.;.+.@.:.R l o.X.] a.f.a.",
"f.p.z :.>.M C 0 5 < < 5 > : > 4 3 4 4 3 3 3 3 3 4 h >.X.X.f.a.a.",
"a.p.n &.5.F ! 9 & & & & & & * * o # # # . . .   @ f &.@.O.f.a.a.",
"a.e.c $.6.M J 6 O & & & & & & + # @ $ $ @ @ @   @ f &.-.O.d.a.a.",
"a.e.n $.X.4.6.7 O & = = & & & X + + + $ @ @ @ @   f 3...O.d.a.a.",
"a.e.z $.o.y.s.w * = = & & & & X + % $ $ @ @   @ @ j &.-.{ a.a.a.",
"a.e.n { &.o.>.w * & = = & & O X + + $ $ @ @ @     h &.:.} a.a.a.",
"a.p.c +.&._ T u * = = = & & O + % % % $ @ @ @ @ @ a &.>.#.d.a.a.",
"a.e.x X.*.C J : = = = & = & O + % % $ @ @   @   @ s o.:.{ p.a.d.",
"a.p.c $.5.v V 6 * = = = = & O + % $ $ @ @ @ @ @   s -.-.} d.d.d.",
"a.e.n +.5.G R y 1 , - = & & O + + + $ $ @ @ @   @ s $.o.} a.d.d.",
"r.e.x &.7.H ) E t.( 2 = = & & + + % $ $ @ @ @ @   h 3.&.] d.d.d.",
"r.e.x &.4.G [  .8./ i = & & O + + $ $ @ @ @ @ @ @ f -.{ ] d.r.d.",
"a.e.n ` 4.J [ | ( S i = = & O + + % $ @ @ @   @ @ s [ X.} d.a.d.",
"r.e.x -.3.K _  .D S i = = & & X + % @ $ @ @     @ h 4.{ ] a.a.a.",
"r.e.x +.y.H ! k p t ; * & & O + + % $ @ @ @   @ @ h $.>.] a.a.a.",
"a.r.x *.y.G ) w * - = = = & O + + % $ # @   @ @ @ h >.3.O.f.a.a.",
"r.e.x { ,.M C : & & = = = & O + % % $ $ @ @ @ @ @ d -.X.] a.d.a.",
"r.e.c X.[ y.s.w * & = = = & O + % $ $ $ @ @ @ @ @ d $.{ } d.a.a.",
"a.e.x ;.o.4.y.w O = - = = = & + % % $ # @ @ @ @ @ f *.$.} a.a.a.",
"r.e.x &.>._ _ y * * - - = = O + + % $ @ @ @ @ @ @ f *.<.} a.a.a.",
"r.e.c &...) T 8 - - - - = = O + + % % $ @ @ @ @   f 3.{ { a.a.a.",
"r.q.c $.4.g g > & - - & = & O + + % $ $ $ $ @   @ h &.*.' w.p.a.",
"%.] r Z R V ) 7 & & & & & X X X + # @ . @ @       q F U U $.=.r.",
"#.} W I R Q ' R L L L L L L L L P H A P K H H A A U Y Q ~ } %.w.",
"0.9.2.2.2.2.2.2.2.2.2.2.2.2.2.2.2.2.2.2.2.2.=.2.2.2.1.2.=.=.9.r.",
"r.e.a.p.a.e.r.d.r.r.r.r.r.r.r.r.r.r.r.e.r.r.r.r.r.d.a.a.r.r.r.d."
};
