/* XPM */
static char *wall[] = {
/* columns rows colors chars-per-pixel */
"32 32 33 1 ",
"  c gray32",
". c gray48",
"X c #888888",
"o c #9B9B9B",
"O c gray61",
"+ c #9D9D9D",
"@ c gray62",
"# c #AAAAAA",
"$ c gray67",
"% c #ACACAC",
"& c #B7B7B7",
"* c gray72",
"= c #B9B9B9",
"- c #BBBBBB",
"; c #C1C1C1",
": c #C3C3C3",
"> c gray77",
", c #CACACA",
"< c #CDCDCD",
"1 c #CECECE",
"2 c gray81",
"3 c gray83",
"4 c #D7D7D7",
"5 c #DADADA",
"6 c gainsboro",
"7 c #DDDDDD",
"8 c gray87",
"9 c #E2E2E2",
"0 c gray89",
"q c #E4E4E4",
"w c #E7E7E7",
"e c #EAEAEA",
"r c gray93",
/* pixels */
"4444444444444444444444444454444 ",
"4r:::::::2::::>5::::4:&:>6>=:0: ",
"4:r:::e::::=>::=:>:=:>&::=:>23. ",
"4::r:=:=>::>:::>:e&2>:::>::q-.. ",
"4q::r:::::e:>=q::4&:::=2e&::.X. ",
"4::::r:::::::%%::::::::::::.X.. ",
"422:0:4444444444444444444:.X.X. ",
"4:::2:4%%$6$$$$%$o$$o$%$%-O.X.. ",
"4:>22=4$O$$$$=%%$$$2$$$O%:.X.X. ",
"42::>>4$$$$$$$$O$$$$$$$$$:O.X.. ",
"42::q>4$$$6$%$$%$o$$o$%$$-.X.X. ",
"4:2>::4$$O$$%=$%$$$2$$$$o:O.X.. ",
"42q>>>4$$$$$$$$O$$$$$$$$$:.X.X. ",
"4>::=:5=OO$$$$%$$$O$$O$$#:o.X.. ",
"4:::::4$%O-$=%$$%%$%$$$O$-.X.X. ",
"42:>::4$$$$$$$$$-OOO$$$$$:o.X.. ",
"4:::::4O%$$$$%=$%$OO%%%$$:.X.X. ",
"4=>:>:4$OO$$$$O$%$%O%O%$#-o.X.. ",
"4:::=:4$%O$$$$%$O%%2%O%%#:.X.X. ",
"4::=::4$$$$%$O$$%OO$$%=Oo-o.X.. ",
"4:>=::4$4$$$$%$O%%o$$O$$O:.X.X. ",
"4=:>:$4$$$%=$%$$$2$$$$$$%-o.X.. ",
"4===&24$$$$$$O%$$%$$$2O%%:.X.X. ",
"4:=:::42$%%=$$$$$,$$$%$Oo:o.X.. ",
"4=>>::4$%$$%%O%%$$$$$5$$o:.X.X. ",
"4:==>:4::-:-:::-::-:::-::-o.X.. ",
"4,:>>-.o.o.o.o.o.o.o.o.o.O:..X. ",
"4::::.X.X.X.X.X.X.X.X.X.X.X:X.. ",
"43::.X.X.X.X.X.X.X.X.X.X.X.X-X. ",
"4::.X.X.X.X.X.X.X.X.X.X.X.X.X:. ",
"4:............................: ",
"4                               "
};
